<svg xmlns="http://www.w3.org/2000/svg" xmlns:xlink="http://www.w3.org/1999/xlink" width="192.222" height="134.173" viewBox="0 0 192.222 134.173"><defs><style>.a{fill:none;}.b{isolation:isolate;}.c{clip-path:url(#a);}.d{fill:#0f2b92;}.e{fill:#ffac2d;}.f{fill:#ff611e;}</style><clipPath id="a"><path class="a" d="M0-5.149H192.222V-139.322H0Z" transform="translate(0 139.322)"/></clipPath></defs><g class="b" transform="translate(0 139.322)"><g class="c" transform="translate(0 -139.322)"><g transform="translate(71.684 33.539)"><path class="d" d="M-.369-.74a9.613,9.613,0,0,0,9.681-9.616A9.668,9.668,0,0,0-.369-20.037a9.613,9.613,0,0,0-9.616,9.681A9.558,9.558,0,0,0-.369-.74" transform="translate(9.985 20.037)"/></g><g transform="translate(99.875 90.437)"><path class="d" d="M-.342,0A9.7,9.7,0,0,0-9.248,5.937H8.5A9.777,9.777,0,0,0-.342,0" transform="translate(9.248)"/></g><g transform="translate(150.345 90.501)"><path class="d" d="M-.371-.74a9.613,9.613,0,0,0,9.681-9.616A9.668,9.668,0,0,0-.371-20.037a9.668,9.668,0,0,0-9.681,9.681A9.613,9.613,0,0,0-.371-.74" transform="translate(10.052 20.037)"/></g><g transform="translate(168.137 38.073)"><path class="d" d="M-.194,0A5.064,5.064,0,0,0-5.26,5.1,5.035,5.035,0,0,0-.194,10.165,5.063,5.063,0,0,0,4.9,5.1,5.092,5.092,0,0,0-.194,0" transform="translate(5.26)"/></g></g></g></svg>
